<?xml version="1.0" encoding="UTF-8" standalone="no"?>
<svg
   viewBox="0 0 793.7007874015749 1122.5196850393702"
   width="793.7007874015749"
   height="1122.5196850393702"
   version="1.1"
   id="svg185"
   sodipodi:docname="1325_yokohamafmarinos_logo.dxf"
   inkscape:version="1.2.1 (9c6d41e, 2022-07-14)"
   xmlns:inkscape="http://www.inkscape.org/namespaces/inkscape"
   xmlns:sodipodi="http://sodipodi.sourceforge.net/DTD/sodipodi-0.dtd"
   xmlns="http://www.w3.org/2000/svg"
   xmlns:svg="http://www.w3.org/2000/svg">
  <sodipodi:namedview
     id="namedview187"
     pagecolor="#ffffff"
     bordercolor="#000000"
     borderopacity="0.25"
     inkscape:showpageshadow="2"
     inkscape:pageopacity="0.0"
     inkscape:pagecheckerboard="0"
     inkscape:deskcolor="#d1d1d1"
     showgrid="false"
     inkscape:zoom="2.5995572"
     inkscape:cx="359.86898"
     inkscape:cy="719.16093"
     inkscape:window-width="1680"
     inkscape:window-height="947"
     inkscape:window-x="0"
     inkscape:window-y="25"
     inkscape:window-maximized="0"
     inkscape:current-layer="g183" />
  <desc
     id="desc91">1325_yokohamafmarinos_logo.dxf - scale = 0.212551, origin = (0.000000, 0.000000), method = auto</desc>
  <defs
     id="defs103">
    <marker
       id="DistanceX"
       orient="auto"
       refX="0.0"
       refY="0.0"
       style="overflow:visible">
      <path
         d="M 3,-3 L -3,3 M 0,-5 L  0,5"
         style="stroke:#000000; stroke-width:0.5"
         id="path93" />
    </marker>
    <pattern
       id="Hatch"
       patternUnits="userSpaceOnUse"
       width="8"
       height="8"
       x="0"
       y="0">
      <path
         d="M8 4 l-4,4"
         stroke="#000000"
         stroke-width="0.25"
         linecap="square"
         id="path96" />
      <path
         d="M6 2 l-4,4"
         stroke="#000000"
         stroke-width="0.25"
         linecap="square"
         id="path98" />
      <path
         d="M4 0 l-4,4"
         stroke="#000000"
         stroke-width="0.25"
         linecap="square"
         id="path100" />
    </pattern>
  </defs>
  <g
     inkscape:groupmode="layer"
     inkscape:label="0"
     id="g183">
    <path
       id="path105"
       style="fill:none;stroke:#000000"
       d="m 241.71094,591.51172 0.32226,88.56836 a 25453.85,25453.85 0 0 0 0.31055,63.53125 618.47105,618.47105 0 0 0 0.54492,22.45508 161.09504,161.09504 0 0 0 1.32422,14.86914 264.37466,264.37466 0 0 0 2.8125,16.67187 236.62962,236.62962 0 0 0 6.58399,25.31446 216.80251,216.80251 0 0 0 9.2246,23.87109 210.09052,210.09052 0 0 0 11.81055,22.25976 203.83041,203.83041 0 0 0 14.3125,20.50977 130.89349,130.89349 0 0 0 8.1875,9.36914 761.70042,761.70042 0 0 0 13.82227,14.01172 767.12078,767.12078 0 0 0 14.15234,13.625 122.86625,122.86625 0 0 0 9.2832,7.88476 210.29972,210.29972 0 0 0 12.22852,8.70704 201.55465,201.55465 0 0 0 12.69336,7.71679 206.71879,206.71879 0 0 0 13.38476,6.84961 236.81555,236.81555 0 0 0 14.30664,6.11133 l 9.84571,3.82813 5.01562,-1.83204 a 219.82424,219.82424 0 0 0 17.23633,-7.13867 222.33553,222.33553 0 0 0 16.6211,-8.5957 216.10165,216.10165 0 0 0 15.60351,-9.82617 190.05201,190.05201 0 0 0 14.19727,-10.83203 165.84086,165.84086 0 0 0 8.63867,-7.78711 665.51349,665.51349 0 0 0 11.79883,-11.70313 668.83384,668.83384 0 0 0 11.44726,-11.93359 148.0779,148.0779 0 0 0 7.3418,-8.4668 190.1469,190.1469 0 0 0 14.13281,-20.14258 211.97371,211.97371 0 0 0 11.8418,-22.34179 221.2862,221.2862 0 0 0 9.32617,-24.0918 234.65549,234.65549 0 0 0 6.61133,-25.36719 264.37466,264.37466 0 0 0 2.81445,-16.67187 161.09504,161.09504 0 0 0 1.32227,-14.86914 618.47105,618.47105 0 0 0 0.54687,-22.45508 25453.85,25453.85 0 0 0 0.31055,-63.53125 l 0.32226,-88.56836 H 396.84961 Z" />
    <path
       id="path107"
       style="fill:none;stroke:#000000"
       d="m 246.55273,596.33203 0.28907,87.36328 a 31261.773,31261.773 0 0 0 0.20898,50.51758 1923.5364,1923.5364 0 0 0 0.26367,23.74219 585.10094,585.10094 0 0 0 0.41211,14.0625 75.955691,75.955691 0 0 0 0.78321,8.18164 286.40049,286.40049 0 0 0 7.5332,34.98242 205.49081,205.49081 0 0 0 11.43555,30.86719 194.62184,194.62184 0 0 0 15.88867,27.90625 228.0804,228.0804 0 0 0 20.84375,26.12304 309.95163,309.95163 0 0 0 19.94531,19.68165 216.57932,216.57932 0 0 0 20.00195,15.99023 200.6404,200.6404 0 0 0 21.03125,12.99805 222.96364,222.96364 0 0 0 23.02539,10.69922 l 8.63477,3.42968 8.63672,-3.41992 a 218.34973,218.34973 0 0 0 20.38281,-9.30859 207.79973,207.79973 0 0 0 19.0625,-11.2461 213.56234,213.56234 0 0 0 18,-13.36914 247.69128,247.69128 0 0 0 17.21289,-15.66406 275.4168,275.4168 0 0 0 24.76367,-28.40625 195.55785,195.55785 0 0 0 18.36524,-29.28906 196.52474,196.52474 0 0 0 12.95508,-32.13281 280.91705,280.91705 0 0 0 8.54882,-36.9336 104.33667,104.33667 0 0 0 1.08399,-9.42187 246.19785,246.19785 0 0 0 0.53125,-11.77539 1227.3259,1227.3259 0 0 0 0.26172,-20.57813 47855.898,47855.898 0 0 0 0.21679,-57.23633 l 0.27735,-87.76367 H 396.84961 Z" />
    <path
       id="path147"
       style="fill:none;stroke:#000000"
       d="m 256.26562,605.16797 v 74.30859 a 23824.307,23824.307 0 0 0 0.0176,28.49414 12017.512,12017.512 0 0 0 0.0527,23.98633 543273.26,543273.26 0 0 0 0.0703,21.73242 0.097776,0.097776 0 0 0 0.0977,0.0977 0.393576,0.393576 0 0 0 0.18164,-0.0449 67066.228,67066.228 0 0 0 7.36914,-3.85742 3823.9447,3823.9447 0 0 0 8.16601,-4.28711 7475.6341,7475.6341 0 0 0 9.6543,-5.0918 l 25.13281,-13.2793 1.54297,1.96289 a 5.84906,5.84906 0 0 0 0.87695,0.89649 24.438861,24.438861 0 0 0 1.43946,1.09961 27.759828,27.759828 0 0 0 1.68945,1.10547 24.263476,24.263476 0 0 0 1.71094,0.93945 20.292243,20.292243 0 0 0 4.36719,1.58203 20.290313,20.290313 0 0 0 4.61328,0.54883 20.806547,20.806547 0 0 0 4.67187,-0.51563 22.608826,22.608826 0 0 0 4.54297,-1.55273 25.291973,25.291973 0 0 1 2.79688,-1.10547 14.067159,14.067159 0 0 1 2.52929,-0.57617 30.055255,30.055255 0 0 1 3.36719,-0.25586 324.57319,324.57319 0 0 1 6.36914,-0.0625 410.83069,410.83069 0 0 1 4.12695,0.0195 207.53031,207.53031 0 0 1 3.47461,0.0644 1081.2722,1081.2722 0 0 1 3.04883,0.0859 0.117833,0.117833 0 0 1 0.11328,0.11914 0.539663,0.539663 0 0 1 -0.043,0.21289 675.93428,675.93428 0 0 1 -0.75195,1.73438 200.87027,200.87027 0 0 1 -0.87695,1.98047 367.26147,367.26147 0 0 1 -1.03907,2.29687 74.120542,74.120542 0 0 0 -2.31054,5.66992 40.511457,40.511457 0 0 0 -1.45703,5.05274 38.585849,38.585849 0 0 0 -0.76563,5.09375 61.412351,61.412351 0 0 0 -0.20312,5.78711 43.917325,43.917325 0 0 0 1.30078,10.09179 39.967646,39.967646 0 0 0 3.58398,9.26758 42.612263,42.612263 0 0 0 5.89063,8.36133 56.747352,56.747352 0 0 0 8.125,7.41211 l 2.21289,1.65625 -16.67383,8.82422 a 7142.6837,7142.6837 0 0 1 -6.56641,3.4707 4766.4787,4766.4787 0 0 1 -5.9375,3.12891 6020.2745,6020.2745 0 0 1 -4.98828,2.62109 119.34951,119.34951 0 0 1 -1.66211,0.85742 7.016271,7.016271 0 0 1 -1.86718,0.63282 15.886976,15.886976 0 0 1 -2.41602,0.26367 47.591066,47.591066 0 0 1 -3.75391,-0.0254 522.28116,522.28116 0 0 1 -7.10351,-0.37696 182.27753,182.27753 0 0 0 -11.63281,-0.32422 9.705601,9.705601 0 0 0 -4.98047,1.4004 5.20686,5.20686 0 0 0 -2.41993,3.47265 39.421549,39.421549 0 0 0 -0.70898,7.38672 l -0.008,6.1875 -7.42188,3.92187 a 737.64213,737.64213 0 0 0 -3.15039,1.67383 925.59307,925.59307 0 0 0 -3.32617,1.78711 838.01574,838.01574 0 0 0 -3.0293,1.64453 211.77137,211.77137 0 0 0 -2.11914,1.16993 l -4.20117,2.35351 3.14649,6.25781 a 117.83592,117.83592 0 0 0 6.68359,11.60157 189.97478,189.97478 0 0 0 8.76367,12.29297 235.49889,235.49889 0 0 0 10.77149,12.92382 350.58317,350.58317 0 0 0 12.76562,13.51368 299.86846,299.86846 0 0 0 11.43359,10.88671 192.97425,192.97425 0 0 0 10.82618,9.08203 176.13574,176.13574 0 0 0 11.01367,7.91016 202.9255,202.9255 0 0 0 11.97851,7.33984 113.87835,113.87835 0 0 0 6.53711,3.42579 495.73549,495.73549 0 0 0 9.75586,4.58398 670.42547,670.42547 0 0 0 9.72461,4.35156 26.166048,26.166048 0 0 0 4.125,1.40821 4.695937,4.695937 0 0 0 2.42383,-0.0371 57.491651,57.491651 0 0 0 4.55664,-1.5 104.43187,104.43187 0 0 0 6.41016,-2.65821 464.14047,464.14047 0 0 0 9.23437,-4.31836 180.29726,180.29726 0 0 0 19.69141,-11.03906 204.38611,204.38611 0 0 0 18.81445,-13.73633 230.59504,230.59504 0 0 0 18.20703,-16.66406 314.82459,314.82459 0 0 0 17.86914,-19.82226 167.36505,167.36505 0 0 0 12.50391,-17.23633 199.9636,199.9636 0 0 0 10.83789,-19.45313 209.78853,209.78853 0 0 0 8.8457,-21.0332 213.53432,213.53432 0 0 0 6.55274,-21.96094 269.02832,269.02832 0 0 0 2.90234,-13.57812 126.05659,126.05659 0 0 0 1.58984,-11.35547 205.62825,205.62825 0 0 0 0.82618,-13.63086 1428.7915,1428.7915 0 0 0 0.43945,-22.69141 1941.0021,1941.0021 0 0 0 0.10156,-12.39843 979.5066,979.5066 0 0 0 -0.004,-10.4375 8108.9576,8108.9576 0 0 0 -0.0566,-9.2754 0.223297,0.223297 0 0 0 -0.22266,-0.22265 0.909817,0.909817 0 0 0 -0.42383,0.10547 172781.49,172781.49 0 0 0 -17.73633,9.33398 9529.0527,9529.0527 0 0 0 -19.65234,10.37305 18573.302,18573.302 0 0 0 -23.23438,12.32226 20544.228,20544.228 0 0 1 -23.23242,12.32032 10516.685,10516.685 0 0 1 -19.64062,10.37304 208852.21,208852.21 0 0 1 -17.73828,9.34375 0.823005,0.823005 0 0 1 -0.38282,0.0957 0.201635,0.201635 0 0 1 -0.20312,-0.19922 2573.8903,2573.8903 0 0 1 -0.0859,-5.87696 443.28719,443.28719 0 0 1 -0.043,-6.67773 878.23607,878.23607 0 0 1 0.0469,-7.93164 l 0.21484,-20.68555 20.88672,-0.21875 20.88672,-0.21679 4.70898,2.10937 a 22.681839,22.681839 0 0 0 7.27735,1.89648 20.265066,20.265066 0 0 0 7.27343,-0.67968 19.387453,19.387453 0 0 0 6.41797,-3.17969 19.410128,19.410128 0 0 0 4.82813,-5.29297 29.104108,29.104108 0 0 0 1.3457,-2.42969 8.914529,8.914529 0 0 0 0.68945,-1.92968 12.529618,12.529618 0 0 0 0.3125,-2.28321 87.956055,87.956055 0 0 0 0.084,-3.84375 87.956055,87.956055 0 0 0 -0.084,-3.84375 12.529618,12.529618 0 0 0 -0.3125,-2.28125 8.914529,8.914529 0 0 0 -0.68945,-1.93164 29.104108,29.104108 0 0 0 -1.3457,-2.42773 21.141749,21.141749 0 0 0 -2.96094,-3.75977 16.930708,16.930708 0 0 0 -3.58594,-2.75976 17.626939,17.626939 0 0 0 -4.25586,-1.75586 24.657944,24.657944 0 0 0 -4.95312,-0.79102 50.669197,50.669197 0 0 0 -3.12891,-0.0801 12.5078,12.5078 0 0 0 -2.17383,0.20118 10.942733,10.942733 0 0 0 -2,0.5664 32.407195,32.407195 0 0 0 -2.51367,1.09961 27.028194,27.028194 0 0 1 -2.75195,1.16211 12.663941,12.663941 0 0 1 -2.39258,0.60352 24.610341,24.610341 0 0 1 -3.08984,0.26757 246.35597,246.35597 0 0 1 -5.72071,0.0664 h -9.66601 l 2.40625,-6.97851 a 95.073565,95.073565 0 0 0 1.3125,-4.10938 20.995051,20.995051 0 0 0 0.62891,-2.85352 19.681389,19.681389 0 0 0 0.21289,-2.8457 76.700297,76.700297 0 0 0 -0.0977,-4.04883 44.081544,44.081544 0 0 0 -0.57227,-5.1875 22.520223,22.520223 0 0 0 -1.16211,-4.24609 19.257605,19.257605 0 0 0 -1.87109,-3.66406 24.258708,24.258708 0 0 0 -2.70508,-3.42383 l -2.28711,-2.41016 50.77539,-26.8125 a 12810.947,12810.947 0 0 0 19.52149,-10.33008 6700.3345,6700.3345 0 0 0 16.5625,-8.81054 53703.092,53703.092 0 0 0 14.77929,-7.89453 3.279321,3.279321 0 0 0 0.67383,-0.47852 0.172324,0.172324 0 0 0 -0.11523,-0.29883 235042.36,235042.36 0 0 0 -39.48633,-0.20117 13726.526,13726.526 0 0 0 -44.80273,-0.15234 31278.384,31278.384 0 0 0 -55.17578,-0.0488 z" />
    <path
       id="path149"
       style="fill:none;stroke:#000000"
       d="m 379.38867,638.9082 1.46875,7.0293 a 398.80676,398.80676 0 0 1 1.34375,6.71094 3.607179,3.607179 0 0 1 -0.0996,1.74609 1.22748,1.22748 0 0 1 -0.98242,0.84961 28.773739,28.773739 0 0 1 -3.24609,0.31641 23.247837,23.247837 0 0 0 -6.30274,1.14257 29.523999,29.523999 0 0 0 -6.17773,2.85352 29.271278,29.271278 0 0 0 -5.33594,4.17774 22.28716,22.28716 0 0 0 -3.81641,5.03906 32.027687,32.027687 0 0 0 -1.32226,2.67578 10.346722,10.346722 0 0 0 -0.66992,2.13281 15.980754,15.980754 0 0 0 -0.29883,2.57422 132.2686,132.2686 0 0 0 -0.0742,4.52539 100.91607,100.91607 0 0 0 0.10352,4.55859 20.052715,20.052715 0 0 0 0.35937,2.97657 19.978529,19.978529 0 0 0 0.80078,2.88672 99.691426,99.691426 0 0 0 1.63477,4.24023 l 2.89648,7.0293 -12.13867,-0.004 a 498.70498,498.70498 0 0 1 -7.39258,-0.0566 32.377766,32.377766 0 0 1 -3.52148,-0.24609 12.526972,12.526972 0 0 1 -2.49414,-0.57422 20.714855,20.714855 0 0 1 -2.67969,-1.13086 17.688813,17.688813 0 0 0 -10.33008,-1.76172 17.523504,17.523504 0 0 0 -9.48047,4.40234 17.205362,17.205362 0 0 0 -5.21679,8.96875 17.061442,17.061442 0 0 0 0.90429,10.31055 17.095736,17.095736 0 0 0 4.12696,5.92383 17.970646,17.970646 0 0 0 6.25781,3.78906 17.62766,17.62766 0 0 0 7.18945,0.95898 16.05106,16.05106 0 0 0 6.76563,-2.07226 15.499656,15.499656 0 0 1 2.5,-1.14648 11.129228,11.129228 0 0 1 2.46484,-0.57227 36.233478,36.233478 0 0 1 3.72852,-0.23242 817.86036,817.86036 0 0 1 8.77929,-0.0469 417.65856,417.65856 0 0 1 5.35938,0.0352 211.00744,211.00744 0 0 1 4.51172,0.10547 853.84105,853.84105 0 0 1 3.91797,0.14258 0.194933,0.194933 0 0 1 0.1875,0.19531 0.615494,0.615494 0 0 1 -0.0723,0.29297 22.085027,22.085027 0 0 1 -0.40625,0.71875 20.021878,20.021878 0 0 1 -0.52734,0.8457 30.274262,30.274262 0 0 1 -0.62696,0.91406 36.73153,36.73153 0 0 0 -3.33203,5.70313 48.354818,48.354818 0 0 0 -2.5293,6.61133 51.034004,51.034004 0 0 0 -1.59375,7.10351 48.628232,48.628232 0 0 0 -0.54101,7.17188 43.280994,43.280994 0 0 0 1.36914,10.86132 35.514154,35.514154 0 0 0 4.04687,9.5918 40.16559,40.16559 0 0 0 6.9336,8.51172 67.965789,67.965789 0 0 0 9.93359,7.67188 l 5.82422,3.69531 v 27.5625 27.56445 l -4.62109,-1.64648 a 64.668544,64.668544 0 0 1 -5.95703,-2.46289 784.14803,784.14803 0 0 1 -11.32618,-5.47071 1146.0738,1146.0738 0 0 1 -11.49218,-5.74609 21.451224,21.451224 0 0 1 -3.52539,-2.24414 l -1.97461,-1.54492 3.38086,-3.66797 a 35.068182,35.068182 0 0 0 1.65039,-1.92774 9.961115,9.961115 0 0 0 1.00586,-1.53515 6.207622,6.207622 0 0 0 0.54101,-1.41016 6.216559,6.216559 0 0 0 0.18359,-1.50195 6.007325,6.007325 0 0 0 -0.86132,-3.09766 3.991804,3.991804 0 0 0 -2.26563,-1.76172 22.90453,22.90453 0 0 0 -5.04101,-0.92383 791.58594,791.58594 0 0 0 -13.73243,-0.83007 742.93426,742.93426 0 0 0 -7.23437,-0.33789 425.52312,425.52312 0 0 0 -6.29297,-0.2168 952.69321,952.69321 0 0 0 -5.40234,-0.13086 2.654214,2.654214 0 0 0 -0.9336,0.14844 4.043789,4.043789 0 0 0 -0.56445,0.24609 12.057593,12.057593 0 0 0 -0.70703,0.4082 13.087401,13.087401 0 0 0 -0.72266,0.48438 9.282295,9.282295 0 0 0 -0.62695,0.49414 3.080708,3.080708 0 0 0 -1.04688,1.94141 37.734164,37.734164 0 0 0 -0.30859,4.40625 102.24221,102.24221 0 0 0 0.17383,7.23437 1010.014,1010.014 0 0 0 0.8789,13.27149 375.14244,375.14244 0 0 0 0.89258,10.29882 17.828264,17.828264 0 0 0 1.00586,4.36914 3.963544,3.963544 0 0 0 1.70703,2.04688 5.56191,5.56191 0 0 0 2.82422,0.76953 4.522056,4.522056 0 0 0 1.43555,-0.23437 6.568431,6.568431 0 0 0 1.44336,-0.6875 13.209578,13.209578 0 0 0 1.70312,-1.29102 62.542254,62.542254 0 0 0 2.32813,-2.18945 l 4.44922,-4.40039 5.61719,4.51562 a 132.491,132.491 0 0 0 7.07617,5.31055 342.6108,342.6108 0 0 0 9.32812,6.29883 346.32296,346.32296 0 0 0 9.63672,6.05859 155.40706,155.40706 0 0 0 8.09375,4.57617 233.4146,233.4146 0 0 0 10.48828,5.19336 228.47052,228.47052 0 0 0 10.68164,4.63281 237.76717,237.76717 0 0 0 9.41016,3.56836 13.542944,13.542944 0 0 0 4.5332,0.78321 8.773421,8.773421 0 0 0 3.08203,-0.56055 416.59564,416.59564 0 0 0 8.6836,-3.36914 281.50375,281.50375 0 0 0 9.32617,-3.9336 196.69372,196.69372 0 0 0 8.36719,-3.94531 206.57989,206.57989 0 0 0 10.5332,-5.66211 226.34788,226.34788 0 0 0 10.4375,-6.38672 251.83006,251.83006 0 0 0 10.61719,-7.29101 340.66342,340.66342 0 0 0 11.07812,-8.38281 4.22185,4.22185 0 0 1 1.15625,-0.64649 1.177309,1.177309 0 0 1 0.92969,0.0488 4.66104,4.66104 0 0 1 1.16992,0.82617 176.04668,176.04668 0 0 1 2.81055,2.78516 62.510555,62.510555 0 0 0 2.30078,2.21289 12.254017,12.254017 0 0 0 1.6582,1.27344 6.053856,6.053856 0 0 0 1.42188,0.66796 4.805212,4.805212 0 0 0 1.46289,0.22852 5.75127,5.75127 0 0 0 2.84765,-0.75391 3.916477,3.916477 0 0 0 1.72266,-2.01367 17.048604,17.048604 0 0 0 1.01758,-4.28711 348.33076,348.33076 0 0 0 0.89453,-10.03125 1236.0663,1236.0663 0 0 0 1.12305,-16.54883 45.183625,45.183625 0 0 0 -0.084,-6.65234 8.171263,8.171263 0 0 0 -1.11328,-3.4668 4.767288,4.767288 0 0 0 -2.4082,-2.02343 3.37839,3.37839 0 0 0 -1.2207,-0.21875 531.61624,531.61624 0 0 0 -5.42188,0.0625 309.06393,309.06393 0 0 0 -6.39648,0.17578 517.35623,517.35623 0 0 0 -7.2754,0.32422 1577.0885,1577.0885 0 0 0 -11.41406,0.63281 65.106101,65.106101 0 0 0 -4.73828,0.45312 14.656725,14.656725 0 0 0 -2.66016,0.60938 4.688262,4.688262 0 0 0 -1.74218,1.03515 l -1.87696,1.76563 -1.01367,-3.43164 a 33.436318,33.436318 0 0 0 -3.30859,-7.58789 50.263536,50.263536 0 0 0 -5.38477,-7.4336 57.550217,57.550217 0 0 0 -7.07812,-6.82421 65.517558,65.517558 0 0 0 -8.36133,-5.76758 l -6.44922,-3.74805 v -29.61523 -29.61524 h 23.21484 23.21485 l 3.49609,1.99805 a 16.219195,16.219195 0 0 0 8.39649,2.13476 17.797518,17.797518 0 0 0 8.55078,-2.39843 17.797283,17.797283 0 0 0 6.32812,-6.23242 16.218671,16.218671 0 0 0 2.3125,-8.34961 18.638061,18.638061 0 0 0 -2.18554,-8.75782 16.828349,16.828349 0 0 0 -6.00977,-6.4082 16.748362,16.748362 0 0 0 -8.4043,-2.49609 18.415141,18.415141 0 0 0 -8.76953,1.98828 20.714855,20.714855 0 0 1 -2.67969,1.13086 12.526972,12.526972 0 0 1 -2.49609,0.57422 32.377766,32.377766 0 0 1 -3.52148,0.24609 498.70498,498.70498 0 0 1 -7.39258,0.0566 l -12.13672,0.004 2.82813,-7.0293 a 51.606712,51.606712 0 0 0 3.20507,-11.92969 24.624083,24.624083 0 0 0 -0.67383,-10.17578 20.289198,20.289198 0 0 0 -4.59374,-8.22851 29.000444,29.000444 0 0 0 -8.24805,-6.24415 61.401825,61.401825 0 0 0 -3.15235,-1.48632 23.05245,23.05245 0 0 0 -2.55078,-0.93946 17.558336,17.558336 0 0 0 -2.36328,-0.54101 21.704527,21.704527 0 0 0 -2.54492,-0.24805 32.605485,32.605485 0 0 1 -1.95898,-0.13281 10.387475,10.387475 0 0 1 -1.44336,-0.24609 5.245082,5.245082 0 0 1 -0.94922,-0.33008 0.462723,0.462723 0 0 1 -0.26953,-0.41602 6.851097,6.851097 0 0 1 0.1289,-1.37305 773.55097,773.55097 0 0 1 1.0586,-5.27929 441.07693,441.07693 0 0 1 1.0664,-5.07227 28.350027,28.350027 0 0 1 0.62696,-2.38672 0.640832,0.640832 0 0 0 -0.40039,-0.79492 7.600377,7.600377 0 0 0 -1.88672,-0.39844 54.148344,54.148344 0 0 0 -4.08789,-0.17968 1791.379,1791.379 0 0 0 -10.8125,-0.0332 z" />
    <path
       d="M 480.478803,755.520319 A 12.582599,12.582599 0.0 0 1 481.767719,756.040753 A 38.224179,38.224179 0.0 0 1 483.418379,756.865072 A 41.317685,41.317685 0.0 0 1 485.133674,757.827002 A 28.894187,28.894187 0.0 0 1 486.651218,758.791183 L 490.092899,761.131291 L 493.843036,758.647304 A 31.328607,31.328607 0.0 0 1 499.757583,755.579513 A 11.193295,11.193295 0.0 0 1 504.800842,754.856711 A 10.691390,10.691390 0.0 0 1 509.546657,756.448009 A 27.484854,27.484854 0.0 0 1 514.539832,760.457531 A 123.110901,123.110901 0.0 0 1 516.744482,762.756160 A 5.678378,5.678378 0.0 0 1 517.552024,763.862033 A 0.623975,0.623975 0.0 0 1 517.549022,764.476408 A 0.822529,0.822529 0.0 0 1 517.008317,764.872048 A 1.981921,1.981921 0.0 0 1 516.100189,764.854813 A 27.492988,27.492988 0.0 0 1 514.315353,764.333843 A 30.509625,30.509625 0.0 0 1 512.213205,763.555610 A 40.642341,40.642341 0.0 0 1 510.014877,762.571412 A 104.105260,104.105260 0.0 0 0 506.653359,761.018366 A 8.044963,8.044963 0.0 0 0 504.877244,760.470447 A 4.491702,4.491702 0.0 0 0 503.335699,760.453509 A 16.742306,16.742306 0.0 0 0 501.222324,760.940069 A 15.175242,15.175242 0.0 0 0 498.314240,762.152822 A 10.831665,10.831665 0.0 0 0 495.982382,763.863783 A 6.954832,6.954832 0.0 0 0 494.597449,765.742263 A 2.277997,2.277997 0.0 0 0 494.460555,767.456392 A 1.900359,1.900359 0.0 0 1 494.527026,768.323315 A 0.611365,0.611365 0.0 0 1 494.130138,768.804542 A 3.519507,3.519507 0.0 0 1 493.026653,769.011730 A 117.643224,117.643224 0.0 0 1 490.037936,769.049699 A 122.998273,122.998273 0.0 0 1 487.009079,769.012400 A 3.328915,3.328915 0.0 0 1 485.926586,768.803097 A 0.595544,0.595544 0.0 0 1 485.543136,768.312083 A 2.187779,2.187779 0.0 0 1 485.631796,767.404466 A 2.944850,2.944850 0.0 0 0 485.711020,765.928270 A 3.189530,3.189530 0.0 0 0 485.069095,764.561485 A 6.473350,6.473350 0.0 0 0 483.583100,763.212553 A 26.342168,26.342168 0.0 0 0 481.086096,761.760916 A 18.640218,18.640218 0.0 0 0 478.290956,760.610086 A 5.744086,5.744086 0.0 0 0 476.078375,760.356068 A 8.143361,8.143361 0.0 0 0 473.632091,760.944074 A 54.224197,54.224197 0.0 0 0 469.861820,762.669713 A 32.862753,32.862753 0.0 0 1 467.872309,763.592054 A 27.064910,27.064910 0.0 0 1 465.918938,764.332077 A 23.496431,23.496431 0.0 0 1 464.233182,764.828040 A 2.470043,2.470043 0.0 0 1 463.273505,764.878901 A 2.560269,2.560269 0.0 0 1 462.441756,764.608345 A 0.363367,0.363367 0.0 0 1 462.270032,764.162914 A 2.543922,2.543922 0.0 0 1 462.737361,763.367302 A 125.788980,125.788980 0.0 0 1 464.580088,761.285301 A 21.712280,21.712280 0.0 0 1 467.241078,758.799917 A 27.831257,27.831257 0.0 0 1 470.445187,756.618902 A 24.510080,24.510080 0.0 0 1 473.607553,755.067662 A 6.551885,6.551885 0.0 0 1 476.060428,754.590197 A 5.539858,5.539858 0.0 0 1 476.895853,754.653233 A 20.849083,20.849083 0.0 0 1 478.054477,754.863158 A 23.220843,23.220843 0.0 0 1 479.309563,755.164025 A 18.686918,18.686918 0.0 0 1 480.478803,755.520319 z"
       style="fill:none;stroke:#000000"
       id="path151" />
    <path
       d="M 476.718363,774.994515 A 41.939487,41.939487 0.0 0 1 478.132359,775.861180 A 31.005372,31.005372 0.0 0 1 479.406229,776.722319 A 30.157689,30.157689 0.0 0 1 480.433408,777.487862 A 1.629352,1.629352 0.0 0 1 480.818221,777.916715 A 0.386006,0.386006 0.0 0 0 481.195420,778.096683 A 2.542240,2.542240 0.0 0 0 481.892805,777.903930 A 5.469323,5.469323 0.0 0 0 482.811312,777.391674 A 13.985946,13.985946 0.0 0 0 483.872269,776.580435 A 19.070830,19.070830 0.0 0 1 487.888486,773.979024 A 20.043476,20.043476 0.0 0 1 492.476361,772.418799 A 17.098027,17.098027 0.0 0 1 496.925863,772.081058 A 8.635537,8.635537 0.0 0 1 500.525003,773.089756 A 12.750109,12.750109 0.0 0 1 502.659173,774.526302 A 80.811903,80.811903 0.0 0 1 505.797866,777.275446 A 156.279415,156.279415 0.0 0 1 508.904445,780.221306 A 1.369603,1.369603 0.0 0 1 509.318117,781.202125 A 0.634389,0.634389 0.0 0 1 508.765328,781.831245 A 5.089012,5.089012 0.0 0 1 507.171391,781.786075 A 13.058456,13.058456 0.0 0 1 504.795921,781.101858 A 33.516320,33.516320 0.0 0 1 501.929517,779.814467 A 21.938589,21.938589 0.0 0 0 500.161935,779.014927 A 25.702419,25.702419 0.0 0 0 498.259847,778.339332 A 22.681650,22.681650 0.0 0 0 496.499365,777.867569 A 5.796700,5.796700 0.0 0 0 495.225118,777.725780 A 10.073285,10.073285 0.0 0 0 491.838493,778.312138 A 13.771721,13.771721 0.0 0 0 488.532841,780.026777 A 10.444975,10.444975 0.0 0 0 486.220959,782.262638 A 2.459903,2.459903 0.0 0 0 485.803029,784.368871 A 1.761851,1.761851 0.0 0 1 485.818250,785.197452 A 0.655228,0.655228 0.0 0 1 485.410191,785.668040 A 3.286234,3.286234 0.0 0 1 484.351653,785.878405 A 85.049578,85.049578 0.0 0 1 481.696551,785.919857 A 79.973402,79.973402 0.0 0 1 478.955347,785.872864 A 3.102548,3.102548 0.0 0 1 477.866345,785.635171 A 0.905207,0.905207 0.0 0 1 477.357423,785.089299 A 3.293954,3.293954 0.0 0 1 477.184481,784.036013 A 3.722009,3.722009 0.0 0 0 476.439799,781.802432 A 9.252564,9.252564 0.0 0 0 474.270459,779.723649 A 11.686294,11.686294 0.0 0 0 471.238383,778.236488 A 10.645996,10.645996 0.0 0 0 467.980595,777.725780 A 5.796700,5.796700 0.0 0 0 466.706347,777.867569 A 22.681650,22.681650 0.0 0 0 464.945865,778.339332 A 25.702419,25.702419 0.0 0 0 463.043777,779.014927 A 21.938589,21.938589 0.0 0 0 461.276196,779.814467 A 25.039050,25.039050 0.0 0 1 459.536527,780.613963 A 26.380248,26.380248 0.0 0 1 457.718226,781.289601 A 22.928722,22.928722 0.0 0 1 456.073509,781.765481 A 4.636479,4.636479 0.0 0 1 454.952052,781.903153 A 8.248709,8.248709 0.0 0 1 453.687548,781.805654 A 0.271446,0.271446 0.0 0 1 453.475005,781.442085 A 2.097076,2.097076 0.0 0 1 453.918474,780.733840 A 284.020152,284.020152 0.0 0 1 456.331192,778.226316 A 66.901289,66.901289 0.0 0 1 459.056552,775.582785 A 15.562632,15.562632 0.0 0 1 461.118551,773.989209 A 10.461152,10.461152 0.0 0 1 463.114596,772.982617 A 16.888595,16.888595 0.0 0 1 465.536039,772.272544 A 10.257383,10.257383 0.0 0 1 468.049720,772.052895 A 13.331061,13.331061 0.0 0 1 470.720839,772.422402 A 17.215287,17.215287 0.0 0 1 473.594656,773.397215 A 30.574506,30.574506 0.0 0 1 476.718363,774.994515 z"
       style="fill:none;stroke:#000000"
       id="path153" />
    <path
       d="M 464.916094,790.363087 A 17.439991,17.439991 0.0 0 1 466.236505,790.980820 A 36.965243,36.965243 0.0 0 1 467.780162,791.830606 A 37.409554,37.409554 0.0 0 1 469.295721,792.761556 A 19.650699,19.650699 0.0 0 1 470.532709,793.631849 L 473.205839,795.670744 L 475.797666,793.485257 A 21.575568,21.575568 0.0 0 1 480.352182,790.537071 A 14.774014,14.774014 0.0 0 1 485.083262,789.171575 A 12.504117,12.504117 0.0 0 1 489.647918,789.493748 A 11.976216,11.976216 0.0 0 1 493.733273,791.439795 A 33.561488,33.561488 0.0 0 1 495.103083,792.503918 A 59.698651,59.698651 0.0 0 1 496.632415,793.800172 A 58.013518,58.013518 0.0 0 1 498.083568,795.116649 A 24.966669,24.966669 0.0 0 1 499.203078,796.236104 A 9.702031,9.702031 0.0 0 1 500.694316,798.319226 A 0.638412,0.638412 0.0 0 1 500.253020,799.245631 A 3.669856,3.669856 0.0 0 1 498.166192,799.042816 A 54.402950,54.402950 0.0 0 1 494.161264,797.220453 A 32.102474,32.102474 0.0 0 0 492.117948,796.277352 A 32.022046,32.022046 0.0 0 0 490.014851,795.480362 A 27.752130,27.752130 0.0 0 0 488.134997,794.915819 A 4.871255,4.871255 0.0 0 0 486.899778,794.756607 A 12.301934,12.301934 0.0 0 0 483.494307,795.237359 A 10.864102,10.864102 0.0 0 0 480.472076,796.639658 A 8.331692,8.331692 0.0 0 0 478.353546,798.676135 A 4.259772,4.259772 0.0 0 0 477.544951,800.998185 A 5.354787,5.354787 0.0 0 1 477.333764,802.277103 A 1.049387,1.049387 0.0 0 1 476.806346,802.915432 A 2.975371,2.975371 0.0 0 1 475.704339,803.233213 A 84.551333,84.551333 0.0 0 1 472.802017,803.435531 A 133.386081,133.386081 0.0 0 1 469.777333,803.559744 A 2.333836,2.333836 0.0 0 1 468.834139,803.390982 A 0.542878,0.542878 0.0 0 1 468.494541,802.886841 A 4.684737,4.684737 0.0 0 1 468.635464,801.752965 A 3.927892,3.927892 0.0 0 0 468.753532,800.769954 A 2.588053,2.588053 0.0 0 0 468.594630,799.894583 A 3.078184,3.078184 0.0 0 0 468.129896,799.060029 A 7.018144,7.018144 0.0 0 0 467.327500,798.195309 A 17.293509,17.293509 0.0 0 0 463.950468,795.792077 A 7.922524,7.922524 0.0 0 0 460.699692,794.846571 A 10.173507,10.173507 0.0 0 0 456.999966,795.279114 A 36.823970,36.823970 0.0 0 0 452.152209,797.165996 A 95.002126,95.002126 0.0 0 1 448.888383,798.635443 A 16.345023,16.345023 0.0 0 1 446.751407,799.379191 A 4.512148,4.512148 0.0 0 1 445.481094,799.536657 A 0.438578,0.438578 0.0 0 1 445.050846,799.098158 A 2.124865,2.124865 0.0 0 1 445.487983,797.807182 A 28.870780,28.870780 0.0 0 1 447.293632,795.669776 A 29.323996,29.323996 0.0 0 1 449.596332,793.453234 A 23.985095,23.985095 0.0 0 1 452.018480,791.617948 A 17.535038,17.535038 0.0 0 1 455.193087,789.954511 A 11.368780,11.368780 0.0 0 1 458.311979,789.195789 A 11.290742,11.290742 0.0 0 1 461.509115,789.340455 A 17.103413,17.103413 0.0 0 1 464.916094,790.363087 z"
       style="fill:none;stroke:#000000"
       id="path155" />
    <path
       d="M 306.715600,746.701848 A 25.837318,25.837318 0.0 0 0 300.070513,748.481158 A 29.054978,29.054978 0.0 0 0 293.910780,751.986910 A 30.277818,30.277818 0.0 0 0 288.667655,756.963822 A 30.960672,30.960672 0.0 0 0 284.719440,763.068403 A 38.520307,38.520307 0.0 0 0 283.431598,765.991893 A 12.982473,12.982473 0.0 0 0 282.762560,768.317415 A 18.265276,18.265276 0.0 0 0 282.457609,771.026061 A 118.935923,118.935923 0.0 0 0 282.374319,775.476426 A 114.103840,114.103840 0.0 0 0 282.456094,779.795692 A 20.399374,20.399374 0.0 0 0 282.746929,782.540461 A 13.710057,13.710057 0.0 0 0 283.361690,784.847265 A 29.730576,29.730576 0.0 0 0 284.483399,787.526539 A 35.733499,35.733499 0.0 0 0 286.907072,791.815619 A 28.091209,28.091209 0.0 0 0 289.771904,795.461800 A 26.574414,26.574414 0.0 0 0 293.117626,798.498882 A 28.078026,28.078026 0.0 0 0 296.974225,800.972368 A 32.324586,32.324586 0.0 0 0 308.657927,804.565787 A 27.926759,27.926759 0.0 0 0 320.361149,803.342894 A 27.713283,27.713283 0.0 0 0 330.482667,797.418111 A 31.553730,31.553730 0.0 0 0 337.674557,787.648044 A 51.245900,51.245900 0.0 0 0 339.045909,784.469674 A 14.936127,14.936127 0.0 0 0 339.765121,782.050389 A 17.088783,17.088783 0.0 0 0 340.100009,779.424074 A 80.129989,80.129989 0.0 0 0 340.197309,775.476426 A 80.488536,80.488536 0.0 0 0 340.101119,771.542622 A 17.164936,17.164936 0.0 0 0 339.770034,768.925153 A 14.708602,14.708602 0.0 0 0 339.061497,766.530963 A 48.148155,48.148155 0.0 0 0 337.720107,763.426313 A 32.294659,32.294659 0.0 0 0 332.381764,755.482444 A 27.485050,27.485050 0.0 0 0 325.141385,749.833742 A 27.793320,27.793320 0.0 0 0 316.404450,746.861696 A 33.623511,33.623511 0.0 0 0 306.715600,746.701848 z"
       style="fill:none;stroke:#000000"
       id="path157" />
    <path
       d="M 303.263428,752.975801 A 1.756826,1.756826 0.0 0 0 303.221619,753.882359 A 1.429505,1.429505 0.0 0 0 303.648035,754.627075 A 4.690883,4.690883 0.0 0 0 304.738204,755.379705 A 52.071298,52.071298 0.0 0 0 307.025162,756.451638 L 311.294590,758.327872 L 315.311295,756.553037 A 37.361675,37.361675 0.0 0 0 317.372623,755.565783 A 5.035742,5.035742 0.0 0 0 318.475217,754.792954 A 1.929152,1.929152 0.0 0 0 318.987878,754.011748 A 1.963282,1.963282 0.0 0 0 319.076667,753.077200 A 6.202082,6.202082 0.0 0 1 319.015280,752.425179 A 3.109464,3.109464 0.0 0 1 319.041389,751.875869 A 1.707559,1.707559 0.0 0 1 319.140286,751.492247 A 0.181403,0.181403 0.0 0 1 319.309506,751.376199 A 3.160421,3.160421 0.0 0 1 320.854290,751.779466 A 45.032035,45.032035 0.0 0 1 323.672862,753.497332 A 41.396857,41.396857 0.0 0 1 326.594919,755.617291 A 24.167020,24.167020 0.0 0 1 328.930291,757.734856 A 112.075130,112.075130 0.0 0 1 330.750688,759.661000 A 2.948224,2.948224 0.0 0 1 331.276723,760.459614 A 0.301079,0.301079 0.0 0 1 331.127457,760.855844 A 1.756938,1.756938 0.0 0 1 330.393942,761.016290 A 2.124713,2.124713 0.0 0 0 329.477951,761.223878 A 1.286695,1.286695 0.0 0 0 328.889232,761.794816 A 4.056667,4.056667 0.0 0 0 328.496925,762.963558 A 52.266820,52.266820 0.0 0 0 328.135121,765.393600 A 38.197796,38.197796 0.0 0 0 327.892919,768.127357 A 4.490439,4.490439 0.0 0 0 328.080647,769.668002 A 4.827936,4.827936 0.0 0 0 328.785104,771.089795 A 47.715396,47.715396 0.0 0 0 330.570710,773.410655 A 53.362858,53.362858 0.0 0 0 332.245011,775.356501 A 4.923969,4.923969 0.0 0 0 333.283873,776.228105 A 1.600511,1.600511 0.0 0 0 334.150130,776.472437 A 2.006256,2.006256 0.0 0 0 335.076517,776.235147 A 7.957754,7.957754 0.0 0 1 335.880183,775.861040 A 0.554051,0.554051 0.0 0 1 336.301585,775.865335 A 0.392761,0.392761 0.0 0 1 336.535013,776.157149 A 4.060694,4.060694 0.0 0 1 336.599828,776.879772 A 11.094770,11.094770 0.0 0 1 336.321046,779.351274 A 55.244431,55.244431 0.0 0 1 335.354944,783.000293 A 55.107734,55.107734 0.0 0 1 334.139378,786.580610 A 11.569483,11.569483 0.0 0 1 332.995331,788.828214 A 61.243378,61.243378 0.0 0 1 332.027316,790.261049 A 0.667866,0.667866 0.0 0 1 331.646401,790.526004 A 0.271852,0.271852 0.0 0 1 331.332890,790.379631 A 12.214460,12.214460 0.0 0 1 330.906184,789.368293 A 3.582104,3.582104 0.0 0 0 330.395307,788.439402 A 0.997270,0.997270 0.0 0 0 329.752120,788.058069 A 3.236735,3.236735 0.0 0 0 328.663137,788.077854 A 86.775794,86.775794 0.0 0 0 326.009017,788.623706 A 26.998809,26.998809 0.0 0 0 323.526142,789.300511 A 5.534821,5.534821 0.0 0 0 322.007026,790.068722 A 6.069986,6.069986 0.0 0 0 320.743448,791.288510 A 36.011392,36.011392 0.0 0 0 319.118252,793.570060 A 91.744594,91.744594 0.0 0 0 317.589589,795.984273 A 4.030398,4.030398 0.0 0 0 317.120671,797.098458 A 1.022059,1.022059 0.0 0 0 317.222902,797.854134 A 2.276212,2.276212 0.0 0 0 317.854596,798.564176 A 1.624344,1.624344 0.0 0 1 318.484622,799.548306 A 0.643247,0.643247 0.0 0 1 318.060378,800.286424 A 7.775310,7.775310 0.0 0 1 315.882382,800.689614 A 114.374869,114.374869 0.0 0 1 311.294590,800.781663 A 64.349228,64.349228 0.0 0 1 307.270571,800.655718 A 14.848218,14.848218 0.0 0 1 304.547212,800.228687 A 0.849361,0.849361 0.0 0 1 303.936363,799.627743 A 0.523213,0.523213 0.0 0 1 304.265358,798.998055 A 1.327359,1.327359 0.0 0 0 305.007721,798.338476 A 1.568622,1.568622 0.0 0 0 305.135056,797.304714 A 6.083215,6.083215 0.0 0 0 304.518788,795.668020 A 50.400234,50.400234 0.0 0 0 302.956929,793.031247 A 27.846648,27.846648 0.0 0 0 301.514673,790.969322 A 5.231659,5.231659 0.0 0 0 300.336078,789.850696 A 5.156673,5.156673 0.0 0 0 298.877234,789.153290 A 26.627084,26.627084 0.0 0 0 296.466233,788.558536 A 73.415392,73.415392 0.0 0 0 293.927499,788.102751 A 3.315103,3.315103 0.0 0 0 292.828126,788.109911 A 1.063517,1.063517 0.0 0 0 292.176799,788.498237 A 3.291392,3.291392 0.0 0 0 291.672484,789.396710 A 12.583551,12.583551 0.0 0 1 291.253876,790.394275 A 0.268821,0.268821 0.0 0 1 290.950052,790.541589 A 0.617708,0.617708 0.0 0 1 290.582946,790.293451 A 55.712784,55.712784 0.0 0 1 289.661177,788.930968 A 13.735607,13.735607 0.0 0 1 288.427665,786.580322 A 45.002912,45.002912 0.0 0 1 287.205894,783.196415 A 45.052580,45.052580 0.0 0 1 286.268403,779.769986 A 10.817188,10.817188 0.0 0 1 285.989353,777.328837 A 10.525606,10.525606 0.0 0 1 286.040547,776.291981 A 0.530732,0.530732 0.0 0 1 286.266142,775.908217 A 0.449624,0.449624 0.0 0 1 286.683953,775.858005 A 7.619608,7.619608 0.0 0 1 287.542547,776.251141 A 2.157065,2.157065 0.0 0 0 288.486469,776.505109 A 1.546956,1.546956 0.0 0 0 289.350789,776.276192 A 4.713406,4.713406 0.0 0 0 290.377920,775.420926 A 53.885757,53.885757 0.0 0 0 292.054042,773.472169 A 46.518831,46.518831 0.0 0 0 293.821631,771.172386 A 4.801292,4.801292 0.0 0 0 294.521627,769.755050 A 4.502851,4.502851 0.0 0 0 294.707787,768.216225 A 38.200494,38.200494 0.0 0 0 294.465882,765.488224 A 44.942352,44.942352 0.0 0 0 294.105354,763.118332 A 4.661511,4.661511 0.0 0 0 293.695036,761.874375 A 1.729415,1.729415 0.0 0 0 293.089407,761.192665 A 2.376360,2.376360 0.0 0 0 292.163573,760.836372 A 3.072037,3.072037 0.0 0 1 291.301752,760.565365 A 0.328743,0.328743 0.0 0 1 291.140937,760.145696 A 2.213404,2.213404 0.0 0 1 291.613162,759.428042 A 119.237535,119.237535 0.0 0 1 293.501063,757.551641 A 26.352190,26.352190 0.0 0 1 295.874311,755.504811 A 42.079596,42.079596 0.0 0 1 298.763325,753.484412 A 43.810079,43.810079 0.0 0 1 301.525359,751.859414 A 3.772575,3.772575 0.0 0 1 303.114482,751.411704 A 0.227208,0.227208 0.0 0 1 303.323818,751.525500 A 0.821582,0.821582 0.0 0 1 303.429099,751.856512 A 1.951834,1.951834 0.0 0 1 303.410902,752.364997 A 4.464990,4.464990 0.0 0 1 303.263428,752.975801 z"
       style="fill:none;stroke:#000000"
       id="path159" />
    <path
       d="M 380.278287,743.418616 A 13.940839,13.940839 0.0 0 0 378.836564,745.606905 A 45.080738,45.080738 0.0 0 0 377.299890,748.794782 A 47.309597,47.309597 0.0 0 0 375.956114,752.252171 A 26.739953,26.739953 0.0 0 0 375.094893,755.347435 A 25.017995,25.017995 0.0 0 0 374.720293,757.584453 A 10.745833,10.745833 0.0 0 0 374.655698,759.413779 A 11.410542,11.410542 0.0 0 0 374.902669,761.271298 A 30.869611,30.869611 0.0 0 0 375.508098,763.608215 A 20.857920,20.857920 0.0 0 0 376.717595,766.704675 A 26.518033,26.518033 0.0 0 0 378.468487,769.771286 A 23.936226,23.936226 0.0 0 0 380.234082,772.109945 A 0.636873,0.636873 0.0 0 0 381.168264,772.146154 A 0.619808,0.619808 0.0 0 0 381.349671,771.720582 A 861.668772,861.668772 0.0 0 0 381.425715,767.505991 A 258.595008,258.595008 0.0 0 0 381.455879,762.658052 A 481.518461,481.518461 0.0 0 0 381.404650,756.989897 A 640.162794,640.162794 0.0 0 0 381.256106,749.767885 A 71.454203,71.454203 0.0 0 0 381.035802,745.730107 A 20.833944,20.833944 0.0 0 0 380.734853,743.532124 A 0.259151,0.259151 0.0 0 0 380.278287,743.418616 z"
       style="fill:none;stroke:#000000"
       id="path173" />
    <path
       d="M 379.164593,758.807103 A 113.062267,113.062267 0.0 0 1 379.119594,761.793738 A 15.097407,15.097407 0.0 0 1 378.967506,763.546255 A 1.697302,1.697302 0.0 0 1 378.708235,764.230608 A 0.199613,0.199613 0.0 0 1 378.373554,764.229653 A 4.622495,4.622495 0.0 0 1 377.639704,761.962012 A 48.693488,48.693488 0.0 0 1 377.613125,757.451210 A 62.801455,62.801455 0.0 0 1 377.952976,752.991584 A 0.913891,0.913891 0.0 0 1 378.861173,752.179540 A 0.127873,0.127873 0.0 0 1 378.988855,752.300437 A 206.910237,206.910237 0.0 0 1 379.080538,754.126386 A 71.956511,71.956511 0.0 0 1 379.146616,756.265810 A 142.296013,142.296013 0.0 0 1 379.164593,758.807103 z"
       style="fill:none;stroke:#000000"
       id="path175" />
    <path
       id="path177"
       style="fill:none;stroke:#000000"
       d="m 412.8418,814.03711 a 0.307284,0.307284 0 0 0 -0.30664,0.29297 884.67188,884.67188 0 0 0 -0.21289,5.35742 265.42933,265.42933 0 0 0 -0.15821,6.33594 601.70258,601.70258 0 0 0 -0.0508,7.79297 2130.7541,2130.7541 0 0 0 0.0547,15.25586 8.223835,8.223835 0 0 0 0.55859,2.91796 0.68555,0.68555 0 0 0 1.19532,0.15039 77.877949,77.877949 0 0 0 3.33789,-5.0664 44.442723,44.442723 0 0 0 2.97265,-5.85938 29.631955,29.631955 0 0 0 1.72461,-5.67382 24.441069,24.441069 0 0 0 0.45508,-5.4004 19.422658,19.422658 0 0 0 -0.81055,-5.04687 10.22251,10.22251 0 0 0 -1.29687,-2.75195 60.68252,60.68252 0 0 0 -2.86133,-3.92383 86.672261,86.672261 0 0 0 -3.11328,-3.71289 1.989768,1.989768 0 0 0 -1.48828,-0.66797 z" />
    <path
       id="path179"
       style="fill:none;stroke:#000000"
       d="m 444.50977,827.37695 -0.52735,4.77735 a 86.286857,86.286857 0 0 1 -0.23828,1.96679 85.706932,85.706932 0 0 1 -0.28516,1.95703 76.340062,76.340062 0 0 1 -0.2871,1.69922 11.430731,11.430731 0 0 1 -0.23243,1.02149 5.166948,5.166948 0 0 0 -0.17578,1.02344 0.239273,0.239273 0 0 0 0.28321,0.25195 2.35243,2.35243 0 0 0 0.77734,-0.29297 248.58905,248.58905 0 0 0 2.72461,-1.65234 53.406698,53.406698 0 0 0 1.58008,-1.01172 30.426757,30.426757 0 0 0 1.33203,-0.93946 42.427985,42.427985 0 0 0 1.0664,-0.82031 0.38422,0.38422 0 0 0 0.14454,-0.30273 0.585557,0.585557 0 0 0 -0.10938,-0.33789 57.799457,57.799457 0 0 0 -0.79688,-1.08789 40.184655,40.184655 0 0 0 -0.99609,-1.27149 67.032758,67.032758 0 0 0 -1.17969,-1.4082 z" />
    <path
       d="M 305.872039,767.934164 A 51.283289,51.283289 0.0 0 0 304.102326,769.389489 A 31.442594,31.442594 0.0 0 0 302.609722,770.760031 A 35.115611,35.115611 0.0 0 0 301.453767,771.946948 A 0.751588,0.751588 0.0 0 0 301.252829,772.458485 A 2.336409,2.336409 0.0 0 0 301.327501,773.044450 A 103.539462,103.539462 0.0 0 0 301.771241,774.700619 A 85.900090,85.900090 0.0 0 0 302.341657,776.669501 A 128.414663,128.414663 0.0 0 0 303.017635,778.833630 L 304.782441,784.313175 L 311.380121,784.313175 L 317.977801,784.313175 L 320.007531,778.276278 L 322.037260,772.239380 L 316.746957,768.234517 A 141.922235,141.922235 0.0 0 0 314.684480,766.702352 A 79.960753,79.960753 0.0 0 0 312.868887,765.417214 A 166.158362,166.158362 0.0 0 0 311.301658,764.353377 A 0.515935,0.515935 0.0 0 0 310.973952,764.267547 A 0.648017,0.648017 0.0 0 0 310.652583,764.383031 A 146.330298,146.330298 0.0 0 0 309.276150,765.360247 A 77.389007,77.389007 0.0 0 0 307.677177,766.540818 A 133.762185,133.762185 0.0 0 0 305.872039,767.934164 z"
       style="fill:none;stroke:#000000"
       id="path181" />
    <ellipse
       style="fill:#000000"
       id="path1087"
       cx="396.60599"
       cy="622.22137"
       rx="11.540427"
       ry="10.963406" />
  </g>
</svg>
