<?xml version="1.0" encoding="utf-8"?>
<!-- Generator: Adobe Illustrator 26.5.0, SVG Export Plug-In . SVG Version: 6.00 Build 0)  -->
<svg version="1.1"
	 id="svg5" xmlns:svg="http://www.w3.org/2000/svg" xmlns:sodipodi="http://sodipodi.sourceforge.net/DTD/sodipodi-0.dtd" xmlns:inkscape="http://www.inkscape.org/namespaces/inkscape"
	 xmlns="http://www.w3.org/2000/svg" xmlns:xlink="http://www.w3.org/1999/xlink" x="0px" y="0px" viewBox="0 0 850.4 637.8"
	 style="enable-background:new 0 0 850.4 637.8;" xml:space="preserve">
<style type="text/css">
	.st0{enable-background:new    ;}
	.st1{fill:none;stroke:#FF0000;stroke-width:2.834646e-03;stroke-miterlimit:10;}
</style>
<sodipodi:namedview  bordercolor="#000000" borderopacity="0.25" id="namedview7" inkscape:current-layer="layer1" inkscape:cx="561.07932" inkscape:cy="349.76373" inkscape:deskcolor="#d1d1d1" inkscape:document-units="mm" inkscape:pagecheckerboard="0" inkscape:pageopacity="0.0" inkscape:showpageshadow="2" inkscape:window-height="946" inkscape:window-maximized="0" inkscape:window-width="1680" inkscape:window-x="0" inkscape:window-y="25" inkscape:zoom="0.4117065" pagecolor="#ffffff" showgrid="false">
	</sodipodi:namedview>
<defs>
	
		<inkscape:path-effect  apply_no_weight="true" apply_with_weight="true" effect="bspline" helper_size="0" id="path-effect1036" is_visible="true" lpeversion="1" only_selected="false" steps="2" weight="33.333333">
		</inkscape:path-effect>
</defs>
<rect id="rect440" x="18.2" y="565.2" width="802.3" height="13.6"/>
<path id="path623" d="M262.1,295.8l-75.6,0.5l-29,46.2c0.5,0,1,0,1.4,0c2.1,0.2,4.1,0.7,6.1,1.1c1.8,0.3,3.6,0.6,5.4,1.3
	c1.5,0.6,2.9,1.5,4.1,2.5c1.4,1,2.6,2.2,3.7,3.6c0.7,1,1.4,2,2.1,3c0.6,0.7,1.3,1.5,1.9,2.2c1.2,1.2,2,2.7,3.2,3.9
	c0.6,0.9,1.5,1.6,2.3,2.3c0.7,0.5,1.4,1.1,2.2,1.4c1.1,0.2,2.1,0.7,3.1,1c0.8,0.2,1.6,0.3,2.5,0.4c1,0,2,0.3,2.9,0
	c1.8-0.5,3.8-0.4,5.4-1.2c1.5-0.6,2.9-1.5,4.3-2.4c1.1-0.9,2.2-1.9,3.1-3c0.9-1,1.6-2,2.4-3.1c0.8-1.1,1.7-2.2,2.5-3.3
	c0.7-0.9,1.7-1.7,2.7-2.3c1.3-0.6,2.7-1,4.1-1.4c1.6-0.6,3.1-1.2,4.7-1.7c1.4-0.6,2.9-1.1,4.4-1.5c1.2-0.3,2.4-0.5,3.6-0.7
	c1.7-0.2,3.3,0.1,5,0.3c2.1,0.2,4.1,0.9,6.1,1.6c1.8,0.6,3.5,1.6,5.1,2.6c1.2,0.8,2.5,1.5,3.7,2.3c1.1,0.7,2.2,1.4,3.2,2.2
	c1.1,0.7,2.1,1.6,3,2.5c0.1,0.2,0.6,0.4,1.3,0.9c0.7,0.5,1.4,1,2.1,1.5c0.8,0.5,1.5,1.4,2.3,1.9c0.6,0.3,1.2,0.8,1.8,1
	c0.2,0,0.7,0.1,1,0.1c0.5,0,1,0.1,1.5,0.1c0.6,0,1.2,0,1.9,0c-0.5,0,0-0.1,0.2-0.2c-0.1-0.1,0.2-0.1,0.3-0.2
	c1.4-0.6,1.2-0.5,1.9-0.9c0.7-0.4,1.7-1.1,2.2-1.4c1.2-0.8,2.3-1.7,3.4-2.7c1.2-1.2,2.4-2.3,3.6-3.5c1.2-1.2,2.4-2.5,3.5-3.8
	c1.1-1.3,2.2-2.6,3.1-3.9c0.7-1.1,1.7-2,2.7-2.9L262.1,295.8z M299.7,349.7c-0.2,0.2-0.4,0.4-0.6,0.7c-1.1,1.6-2.4,3.1-3.7,4.6
	c-1.3,1.4-2.5,2.9-3.9,4.2c-1.3,1.3-2.7,2.6-4.1,3.9c-1.2,1-2.4,2-3.7,2.9c-1,0.7-2,1.4-3.1,2.1c-0.9,0.5-1.8,1-2.7,1.4
	c-1.4,0.7-3,1.1-4.6,1.3c-0.7,0-1.4,0-2.1,0c-0.7,0-1.4,0-2.2-0.1c-1.3-0.1-2.6-0.4-3.8-0.9c-1.1-0.5-2-1.1-3-1.7
	c-0.8-0.6-1.9-1.4-2.4-2c-0.7-0.5-1.4-1-2.1-1.5c-0.9-0.6-1.8-1.1-2.5-1.9c-0.7-0.6-1.3-1.3-2.1-1.7c-0.9-0.7-1.8-1.3-2.7-1.9
	c-1.2-0.8-2.5-1.4-3.7-2.3c-1.1-0.7-2.2-1.3-3.4-1.7c-1.3-0.5-2.7-1-4.1-1.1c-0.9-0.1-1.9-0.4-2.8-0.3c-0.7,0.1-1.4,0.2-2.1,0.4
	c-1.3,0.3-2.5,0.9-3.7,1.3c-1.7,0.6-3.3,1.2-5,1.8c-0.3,0.1-1.7,0.6-2.4,0.8c-0.7,0.9-1.3,1.7-2,2.6c-0.9,1.3-1.8,2.6-2.9,3.8
	c-1.5,1.8-3.1,3.4-5,4.8c-1.9,1.3-4,2.5-6.1,3.4c-2.4,0.9-4.9,1.2-7.4,1.7c-1.6,0.2-3.3,0.2-4.9,0.1c-1.5-0.1-3-0.3-4.4-0.7
	c-1.4-0.5-2.9-0.9-4.3-1.4c-1.5-0.7-2.8-1.6-4.1-2.6c-1.2-1-2.3-2-3.3-3.3c-1.1-1.3-2.1-2.6-3.2-3.9c-0.9-1-1.8-2.1-2.6-3.2
	c-0.6-0.9-1.1-1.7-1.7-2.5c-0.6-0.9-1.5-1.5-2.3-2.1c-0.5-0.5-1-0.8-1.7-1.1c-1.1-0.6-2.5-0.4-3.6-0.8c-1.5-0.3-3.1-0.6-4.6-1
	c-1.3,0-2.6,0-3.9-0.2c-0.9-0.1-1.8-0.3-2.7-0.4l-135,215.1l432.5-0.9L299.7,349.7z M223.4,357.5c-0.1,0.1-0.1,0.1-0.2,0.2
	c0,0,0,0,0,0C223.3,357.7,223.3,357.6,223.4,357.5L223.4,357.5z"/>
<g class="st0">
	<path d="M367,160.7V57.6h20.5l24.4,73c2.2,6.8,3.9,11.9,4.9,15.3c1.2-3.7,3-9.3,5.5-16.5L447,57.6h18.4v103.1h-13.1V74.4l-30,86.3
		H410l-29.8-87.8v87.8H367z"/>
	<path d="M487,160.7V57.6h20.5l24.4,73c2.2,6.8,3.9,11.9,4.9,15.3c1.2-3.7,3-9.3,5.5-16.5L567,57.6h18.4v103.1h-13.1V74.4l-30,86.3
		h-12.3l-29.8-87.8v87.8H487z"/>
	<path d="M668.7,148.5v12.2h-68.1c-0.1-3,0.4-6,1.5-8.8c1.7-4.6,4.5-9.2,8.3-13.7c3.8-4.5,9.3-9.7,16.6-15.6
		c11.2-9.2,18.8-16.5,22.7-21.8c3.9-5.4,5.9-10.4,5.9-15.2c0-5-1.8-9.2-5.4-12.7s-8.3-5.2-14-5.2c-6.1,0-11,1.8-14.6,5.5
		s-5.5,8.7-5.6,15.2L603,87c0.9-9.7,4.2-17.1,10.1-22.2c5.8-5.1,13.6-7.6,23.4-7.6c9.9,0,17.7,2.7,23.5,8.2s8.6,12.3,8.6,20.4
		c0,4.1-0.8,8.2-2.5,12.2c-1.7,4-4.5,8.2-8.4,12.6c-3.9,4.4-10.4,10.5-19.5,18.1c-7.6,6.4-12.5,10.7-14.6,13
		c-2.2,2.3-3.9,4.6-5.3,6.9H668.7z"/>
	<path d="M730,160.7h-12.7V80c-3,2.9-7,5.8-12,8.7c-4.9,2.9-9.4,5.1-13.3,6.5V83.1c7.1-3.3,13.3-7.4,18.6-12.1
		c5.3-4.7,9-9.3,11.2-13.8h8.2V160.7z"/>
</g>
<path id="path963" d="M348,571.1l144.9-0.8l-43.3-292.2l-15,0.8l-2.5,12.5l-41.6,1.7l-5.8-10l-13.3,0.8L348,571.1z"/>
<path id="path976" d="M493.7,348l10.8,226.4l117.4-1.7L493.7,348z"/>
<path id="path1034" inkscape:original-d="m 172.69215,121.88307 c 12.62912,-0.39133 25.25797,-0.78292 37.88655,-1.17478 2.15406,26.72697 4.30778,53.4526 6.46127,80.1785 0.19607,2.7e-4 0.39186,2.7e-4 0.58739,0 -13.70574,-24.67053 -27.41119,-49.34035 -41.11718,-74.01092 -0.48924,-0.78294 -0.97872,-1.5661 -1.46847,-2.34955 -0.78294,-0.88084 -1.56611,-1.7619 -2.34956,-2.64325 z" inkscape:path-effect="#path-effect1036" d="
	M508.5,346.2c16.8-1.8,52.6-2.9,73.5,34.4c21,37.3,27.1,113.1,30.4,151c3.3,37.9,3.9,37.9-15.3,2.9s-58-104.9-78.1-141
	c-20.1-36.1-21.5-38.3-23.3-40.7C494,350.5,491.7,348,508.5,346.2L508.5,346.2z"/>
<path id="path1042" d="M729.3,384.6c-41.8,0-75.8,34.7-75.8,77.4c0,0,0,0,0,0c0,42.8,33.9,77.4,75.8,77.4c0,0,0,0,0,0
	c41.8,0,75.8-34.7,75.8-77.4S771.1,384.6,729.3,384.6z M728.9,396.3c36.1,0,65.4,30,65.4,67c0,0,0,0,0,0c0,37-29.3,67-65.4,67
	c-36.1,0-65.4-30-65.4-67C663.5,426.3,692.8,396.3,728.9,396.3C728.9,396.3,728.9,396.3,728.9,396.3z"/>
<path id="path1258" d="M726.8,477L681,568.6l99.1-0.8L726.8,477z M727.6,501.2l36.6,64.9l-69.9,0.8L727.6,501.2z"/>
<rect x="14.2" y="14.2" class="st1" width="822" height="609.4"/>
</svg>
